<mxfile host="65bd71144e">
    <diagram id="dB-3ol5uDr2LxEsU0GAV" name="Page-1">
        <mxGraphModel dx="2523" dy="1754" grid="1" gridSize="10" guides="1" tooltips="1" connect="1" arrows="1" fold="1" page="1" pageScale="1" pageWidth="850" pageHeight="1100" math="0" shadow="0">
            <root>
                <mxCell id="0"/>
                <mxCell id="1" parent="0"/>
                <mxCell id="67" value="" style="rounded=0;whiteSpace=wrap;html=1;gradientDirection=radial;fillColor=#FAF8F8;shadow=0;strokeColor=none;" parent="1" vertex="1">
                    <mxGeometry y="700" width="850" height="600" as="geometry"/>
                </mxCell>
                <mxCell id="2" value="" style="rounded=0;whiteSpace=wrap;html=1;gradientDirection=radial;fillColor=#FAF8F8;shadow=0;strokeColor=none;" parent="1" vertex="1">
                    <mxGeometry width="850" height="600" as="geometry"/>
                </mxCell>
                <mxCell id="65" value="" style="rounded=0;whiteSpace=wrap;html=1;gradientDirection=radial;fillColor=#cfcfcf;shadow=0;strokeColor=none;" parent="1" vertex="1">
                    <mxGeometry y="550" width="850" height="180" as="geometry"/>
                </mxCell>
                <mxCell id="4" value="" style="rounded=0;whiteSpace=wrap;html=1;gradientDirection=radial;" parent="1" vertex="1">
                    <mxGeometry width="850" height="60" as="geometry"/>
                </mxCell>
                <mxCell id="5" value="" style="rounded=0;whiteSpace=wrap;html=1;gradientDirection=radial;fillColor=#CFCFCF;strokeColor=#b46504;" parent="1" vertex="1">
                    <mxGeometry y="60" width="850" height="60" as="geometry"/>
                </mxCell>
                <mxCell id="16" value="" style="rounded=0;whiteSpace=wrap;html=1;shadow=0;glass=0;labelBackgroundColor=#FAF8F8;labelBorderColor=none;strokeColor=#CFCFCF;fontFamily=Georgia;fontSize=24;fontColor=#2a252f;fillColor=#1B1720;gradientColor=none;gradientDirection=radial;" parent="1" vertex="1">
                    <mxGeometry y="1300" width="850" height="220" as="geometry"/>
                </mxCell>
                <mxCell id="17" value="" style="ellipse;whiteSpace=wrap;html=1;" parent="1" vertex="1">
                    <mxGeometry x="380" y="1365" width="90" height="90" as="geometry"/>
                </mxCell>
                <mxCell id="18" value="" style="ellipse;whiteSpace=wrap;html=1;" parent="1" vertex="1">
                    <mxGeometry x="155" y="1365" width="90" height="90" as="geometry"/>
                </mxCell>
                <mxCell id="19" value="" style="ellipse;whiteSpace=wrap;html=1;" parent="1" vertex="1">
                    <mxGeometry x="610" y="1365" width="90" height="90" as="geometry"/>
                </mxCell>
                <mxCell id="47" value="" style="rounded=0;whiteSpace=wrap;html=1;labelBackgroundColor=none;labelBorderColor=none;strokeColor=#FFFFFF;strokeWidth=2;fontSize=9;fontColor=#FFFFFF;fillColor=#1B1720;" parent="1" vertex="1">
                    <mxGeometry x="20" y="75" width="120" height="30" as="geometry"/>
                </mxCell>
                <mxCell id="49" value="" style="rounded=0;whiteSpace=wrap;html=1;labelBackgroundColor=none;labelBorderColor=none;strokeColor=#FFFFFF;strokeWidth=2;fontSize=9;fontColor=#FFFFFF;fillColor=#FFFFFF;" parent="1" vertex="1">
                    <mxGeometry x="10" y="20" width="220" height="20" as="geometry"/>
                </mxCell>
                <mxCell id="50" value="" style="rounded=0;whiteSpace=wrap;html=1;labelBackgroundColor=none;labelBorderColor=none;strokeColor=#FFFFFF;strokeWidth=2;fontSize=9;fontColor=#FFFFFF;fillColor=#FFFFFF;" parent="1" vertex="1">
                    <mxGeometry x="510" y="20" width="320" height="20" as="geometry"/>
                </mxCell>
                <mxCell id="51" value="" style="rounded=0;whiteSpace=wrap;html=1;" parent="1" vertex="1">
                    <mxGeometry x="40" y="150" width="120" height="50" as="geometry"/>
                </mxCell>
                <mxCell id="52" value="" style="rounded=0;whiteSpace=wrap;html=1;" parent="1" vertex="1">
                    <mxGeometry x="40" y="500" width="115" height="30" as="geometry"/>
                </mxCell>
                <mxCell id="53" value="" style="rounded=0;whiteSpace=wrap;html=1;fillColor=none;strokeColor=#000000;strokeWidth=2;" parent="1" vertex="1">
                    <mxGeometry x="40" y="240" width="417.5" height="240" as="geometry"/>
                </mxCell>
                <mxCell id="54" value="" style="rounded=0;whiteSpace=wrap;html=1;fillColor=none;strokeColor=#000000;strokeWidth=2;" parent="1" vertex="1">
                    <mxGeometry x="520" y="210" width="293.75" height="330" as="geometry"/>
                </mxCell>
                <mxCell id="55" value="" style="rounded=0;whiteSpace=wrap;html=1;strokeColor=#000000;strokeWidth=2;fillColor=none;" parent="1" vertex="1">
                    <mxGeometry x="120" y="570" width="150" height="100" as="geometry"/>
                </mxCell>
                <mxCell id="60" value="" style="rounded=0;whiteSpace=wrap;html=1;strokeColor=#000000;strokeWidth=2;fillColor=none;" parent="1" vertex="1">
                    <mxGeometry x="350" y="570" width="150" height="100" as="geometry"/>
                </mxCell>
                <mxCell id="61" value="" style="rounded=0;whiteSpace=wrap;html=1;strokeColor=#000000;strokeWidth=2;fillColor=none;" parent="1" vertex="1">
                    <mxGeometry x="580" y="570" width="150" height="100" as="geometry"/>
                </mxCell>
                <mxCell id="62" value="" style="rounded=0;whiteSpace=wrap;html=1;strokeColor=#000000;strokeWidth=2;fillColor=default;" parent="1" vertex="1">
                    <mxGeometry x="140" y="580" width="110" height="50" as="geometry"/>
                </mxCell>
                <mxCell id="63" value="" style="rounded=0;whiteSpace=wrap;html=1;strokeColor=#000000;strokeWidth=2;fillColor=default;" parent="1" vertex="1">
                    <mxGeometry x="370" y="580" width="110" height="50" as="geometry"/>
                </mxCell>
                <mxCell id="64" value="" style="rounded=0;whiteSpace=wrap;html=1;strokeColor=#000000;strokeWidth=2;fillColor=default;" parent="1" vertex="1">
                    <mxGeometry x="600" y="580" width="110" height="50" as="geometry"/>
                </mxCell>
                <mxCell id="70" value="" style="rounded=0;whiteSpace=wrap;html=1;fillColor=none;strokeColor=#000000;strokeWidth=2;" parent="1" vertex="1">
                    <mxGeometry x="58.12" y="835" width="293.75" height="330" as="geometry"/>
                </mxCell>
                <mxCell id="71" value="" style="rounded=0;whiteSpace=wrap;html=1;" parent="1" vertex="1">
                    <mxGeometry x="490" y="810" width="220" height="75" as="geometry"/>
                </mxCell>
                <mxCell id="73" value="" style="rounded=0;whiteSpace=wrap;html=1;labelBackgroundColor=none;labelBorderColor=none;strokeColor=#FFFFFF;strokeWidth=2;fontSize=9;fontColor=#FFFFFF;fillColor=#1B1720;" parent="1" vertex="1">
                    <mxGeometry x="770" y="80" width="70" height="20" as="geometry"/>
                </mxCell>
                <mxCell id="74" value="" style="rounded=0;whiteSpace=wrap;html=1;labelBackgroundColor=none;labelBorderColor=none;strokeColor=#FFFFFF;strokeWidth=2;fontSize=9;fontColor=#FFFFFF;fillColor=#1B1720;" parent="1" vertex="1">
                    <mxGeometry x="690" y="80" width="70" height="20" as="geometry"/>
                </mxCell>
                <mxCell id="75" value="" style="rounded=0;whiteSpace=wrap;html=1;labelBackgroundColor=none;labelBorderColor=none;strokeColor=#FFFFFF;strokeWidth=2;fontSize=9;fontColor=#FFFFFF;fillColor=#1B1720;" parent="1" vertex="1">
                    <mxGeometry x="610" y="80" width="70" height="20" as="geometry"/>
                </mxCell>
                <mxCell id="76" value="" style="rounded=0;whiteSpace=wrap;html=1;labelBackgroundColor=none;labelBorderColor=none;strokeColor=#FFFFFF;strokeWidth=2;fontSize=9;fontColor=#FFFFFF;fillColor=#1B1720;" parent="1" vertex="1">
                    <mxGeometry x="530" y="80" width="70" height="20" as="geometry"/>
                </mxCell>
                <mxCell id="77" value="" style="rounded=0;whiteSpace=wrap;html=1;labelBackgroundColor=none;labelBorderColor=none;strokeColor=#FFFFFF;strokeWidth=2;fontSize=9;fontColor=#FFFFFF;fillColor=#1B1720;" parent="1" vertex="1">
                    <mxGeometry x="450" y="80" width="70" height="20" as="geometry"/>
                </mxCell>
                <mxCell id="78" value="&lt;h1&gt;Heading&lt;/h1&gt;&lt;p&gt;Lorem ipsum dolor sit amet, consectetur adipisicing elit, sed do eiusmod tempor incididunt ut labore et dolore magna aliqua.&lt;/p&gt;" style="text;html=1;strokeColor=none;fillColor=none;spacing=5;spacingTop=-20;whiteSpace=wrap;overflow=hidden;rounded=0;strokeWidth=2;fontColor=#000000;" parent="1" vertex="1">
                    <mxGeometry x="40" y="240" width="420" height="240" as="geometry"/>
                </mxCell>
                <mxCell id="79" value="&lt;h1&gt;Heading&lt;/h1&gt;&lt;p&gt;Lorem ipsum dolor sit amet, consectetur adipisicing elit, sed do eiusmod tempor incididunt ut labore et dolore magna aliqua.&lt;/p&gt;" style="text;html=1;strokeColor=none;fillColor=none;spacing=5;spacingTop=-20;whiteSpace=wrap;overflow=hidden;rounded=0;strokeWidth=2;fontColor=#000000;" parent="1" vertex="1">
                    <mxGeometry x="400" y="910" width="420" height="240" as="geometry"/>
                </mxCell>
                <mxCell id="80" value="" style="rounded=0;whiteSpace=wrap;html=1;fillColor=none;strokeColor=#000000;strokeWidth=2;" parent="1" vertex="1">
                    <mxGeometry x="396.25" y="900" width="417.5" height="240" as="geometry"/>
                </mxCell>
                <mxCell id="81" value="" style="rounded=0;whiteSpace=wrap;html=1;strokeColor=#000000;fillColor=#FFFFFF;" parent="1" vertex="1">
                    <mxGeometry x="365" y="1480" width="120" height="20" as="geometry"/>
                </mxCell>
            </root>
        </mxGraphModel>
    </diagram>
</mxfile>